<?xml version="1.0" encoding="utf-8"?>
<!-- Generator: Adobe Illustrator 16.0.0, SVG Export Plug-In . SVG Version: 6.00 Build 0)  -->
<!DOCTYPE svg PUBLIC "-//W3C//DTD SVG 1.1//EN" "http://www.w3.org/Graphics/SVG/1.1/DTD/svg11.dtd">
<svg xmlns="http://www.w3.org/2000/svg" xmlns:xlink="http://www.w3.org/1999/xlink" version="1.1" id="Train" x="0px" y="0px" width="512" height="512" viewBox="0 0 144.083 144" enable-background="new 0 0 144.083 144" xml:space="preserve">
<path d="M80.135,37.471H11.08v6h69.055c6.523,0,14.422,2.943,22.053,7.146c-3.904,0.983-6.807,4.514-6.807,8.719V67  c0,4.963,4.037,9,9,9h22.658c1.348,0,2.654-0.301,3.84-0.86c0.482,0.966,0.75,1.819,0.75,2.518v1c0,7.15-5.816,12.967-12.967,12.967  H11.08v6h8.73c0.146,1.794,0.729,3.463,1.645,4.905H11.08v6h115.061v-6H108.51c0.916-1.442,1.498-3.111,1.645-4.905h9.986v-0.075  c9.768-0.759,17.488-8.933,17.488-18.892v-1C137.629,64.863,101.534,37.471,80.135,37.471z M127.04,70h-22.658c-1.654,0-3-1.346-3-3  v-7.665c0-1.654,1.346-3,3-3h6.99c6.453,4.49,12.121,9.448,15.813,13.649C127.135,69.986,127.088,70,127.04,70z M30.609,101.586  c-2.369,0-4.338-1.712-4.755-3.962h9.508C34.946,99.874,32.978,101.586,30.609,101.586z M46.295,101.586  c-2.369,0-4.338-1.712-4.755-3.962h9.508C50.632,99.874,48.663,101.586,46.295,101.586z M55.448,102.529  c0.915-1.442,1.498-3.111,1.644-4.905h15.782c0.145,1.794,0.729,3.463,1.645,4.905H55.448z M83.672,101.586  c-2.369,0-4.338-1.712-4.756-3.962h9.508C88.008,99.874,86.04,101.586,83.672,101.586z M99.358,101.586  c-2.369,0-4.338-1.712-4.756-3.962h9.508C103.694,99.874,101.725,101.586,99.358,101.586z"/>
<path d="M77.67,73.668c4.963,0,9-4.037,9-9v-5.333c0-4.963-4.037-9-9-9H17.08c-4.963,0-9,4.037-9,9v5.333c0,4.963,4.037,9,9,9H77.67  z M68.625,56.335h9.045c1.654,0,3,1.346,3,3v5.333c0,1.654-1.346,3-3,3h-9.045V56.335z M50.375,56.335h12.25v11.333h-12.25V56.335z   M32.125,56.335h12.25v11.333h-12.25V56.335z M14.08,64.668v-5.333c0-1.654,1.346-3,3-3h9.045v11.333H17.08  C15.426,67.668,14.08,66.322,14.08,64.668z"/>
</svg>
